<svg xmlns="http://www.w3.org/2000/svg" width="128" height="128" viewBox="0 0 128 128" version="1.1">
	<path d="M 68.500 26.624 C 54.750 38.510, 43.562 48.852, 43.637 49.607 C 43.712 50.361, 43.375 50.732, 42.887 50.430 C 41.228 49.405, 41.992 53.682, 43.750 55.263 C 44.713 56.128, 49.550 58.725, 54.500 61.034 C 59.450 63.343, 64.287 65.925, 65.250 66.771 C 67.139 68.432, 67.630 73.492, 66 74.500 C 65.450 74.840, 65 75.597, 65 76.181 C 65 76.815, 65.707 76.690, 66.750 75.872 C 68.341 74.624, 68.374 74.661, 67.107 76.274 C 66.342 77.250, 65.478 77.811, 65.189 77.522 C 64.514 76.848, 61 79.998, 61 81.277 C 61 81.810, 61.788 81.627, 62.750 80.872 C 64.334 79.630, 64.370 79.665, 63.137 81.239 C 62.387 82.195, 61.414 82.756, 60.974 82.484 C 60.535 82.213, 58.786 83.745, 57.088 85.889 C 53.890 89.927, 53.157 91.639, 55.155 90.405 C 55.876 89.959, 56.037 90.131, 55.585 90.862 C 55.187 91.506, 54.483 91.799, 54.020 91.512 C 53.557 91.226, 50.888 93.870, 48.089 97.388 C 42.868 103.950, 41.659 106.296, 44.750 103.872 C 46.334 102.630, 46.370 102.665, 45.137 104.239 C 44.387 105.195, 43.415 105.756, 42.976 105.485 C 42.537 105.214, 39.888 107.870, 37.089 111.388 C 31.868 117.950, 30.659 120.296, 33.750 117.872 C 35.334 116.630, 35.370 116.665, 34.137 118.239 C 33.387 119.195, 32.410 119.754, 31.967 119.479 C 30.970 118.864, 26.742 124.075, 27.568 124.901 C 27.895 125.229, 28.802 124.624, 29.582 123.557 C 30.362 122.491, 31 121.915, 31 122.278 C 31 123.487, 102.486 66.912, 103.378 64.996 C 103.861 63.959, 104.011 62.470, 103.710 61.687 C 103.410 60.905, 98.290 57.677, 92.332 54.514 C 79.347 47.619, 78 46.524, 78 42.861 C 78 41.270, 81.502 33.313, 86 24.682 C 90.400 16.240, 94 8.964, 94 8.512 C 94 8.060, 93.188 8.322, 92.195 9.095 C 91.202 9.868, 91.748 9.262, 93.407 7.750 C 95.269 6.053, 95.865 5.003, 94.962 5.007 C 94.158 5.011, 82.250 14.738, 68.500 26.624 M 84.924 14.750 L 82.500 17.500 85.250 15.076 C 87.820 12.810, 88.459 12, 87.674 12 C 87.495 12, 86.258 13.238, 84.924 14.750 M 77.437 21.250 L 74.500 24.500 77.750 21.563 C 79.537 19.948, 81 18.485, 81 18.313 C 81 17.540, 80.175 18.221, 77.437 21.250 M 70.405 27.250 L 68.500 29.500 70.750 27.595 C 72.864 25.805, 73.455 25, 72.655 25 C 72.465 25, 71.453 26.012, 70.405 27.250 M 62.924 33.750 L 60.500 36.500 63.250 34.076 C 65.820 31.810, 66.459 31, 65.674 31 C 65.495 31, 64.258 32.237, 62.924 33.750 M 55.437 40.250 L 52.500 43.500 55.750 40.563 C 57.538 38.948, 59 37.485, 59 37.313 C 59 36.540, 58.175 37.221, 55.437 40.250 M 47.924 46.750 L 45.500 49.500 48.250 47.076 C 49.763 45.742, 51 44.505, 51 44.326 C 51 43.541, 50.190 44.180, 47.924 46.750 M 74 56.500 C 74 57.530, 74.655 58.020, 75.750 57.810 C 77.858 57.404, 77.725 55.629, 75.553 55.177 C 74.647 54.988, 74 55.539, 74 56.500 M 96 58.376 C 96 58.610, 97.602 59.748, 99.560 60.903 C 101.518 62.058, 102.840 62.549, 102.497 61.995 C 101.827 60.911, 96 57.665, 96 58.376" stroke="none" fill="black" fill-rule="evenodd"/>
</svg>